<svg aria-hidden="true" style="position: absolute; width: 0; height: 0; overflow: hidden;" version="1.1" xmlns="http://www.w3.org/2000/svg" xmlns:xlink="http://www.w3.org/1999/xlink">
<defs>
<symbol id="icon-fortune" viewBox="0 0 32 32">
<path fill="#f0f3f5" style="fill: var(--color1, #f0f3f5)" d="M18.040 22.905c3.895-1.685 6.415-5.52 6.415-9.765 0-0.75-0.080-1.495-0.235-2.23l-1.14-3c-1.885-3.345-5.425-5.41-9.265-5.41-5.875 0-10.64 4.765-10.64 10.64 0 4.245 2.52 8.080 6.415 9.765h8.45z"></path>
<path fill="#e4ecf0" style="fill: var(--color2, #e4ecf0)" d="M13.815 2.5c-0.345 0-0.68 0.020-1.020 0.050 3.46 0.315 6.575 2.3 8.3 5.36l1.14 3c0.155 0.735 0.235 1.48 0.235 2.23 0 4.245-2.52 8.080-6.415 9.765h1.98c3.895-1.685 6.415-5.52 6.415-9.765 0-0.75-0.080-1.495-0.235-2.23l-1.14-3c-1.885-3.345-5.425-5.41-9.265-5.41z"></path>
<path fill="#e8a3c1" style="fill: var(--color3, #e8a3c1)" d="M17.25 18.59c-0.15 0-0.295 0.025-0.44 0.070l-0.12 1.345 0.925 1.44c0.64-0.165 1.085-0.745 1.085-1.405 0-0.8-0.65-1.45-1.45-1.45z"></path>
<path fill="#8fd7f8" style="fill: var(--color4, #8fd7f8)" d="M10.545 17.050c-0.8 0-1.45 0.65-1.45 1.45 0 0.76 0.59 1.395 1.35 1.445l0.785-1.12v-1.6c-0.21-0.115-0.445-0.175-0.685-0.175v0z"></path>
<path fill="#8fd7f8" style="fill: var(--color4, #8fd7f8)" d="M20.445 15.215c-0.8 0-1.45 0.65-1.45 1.45s0.65 1.45 1.45 1.45c0.8 0 1.45-0.65 1.45-1.45s-0.65-1.45-1.45-1.45z"></path>
<path fill="#e8a3c1" style="fill: var(--color3, #e8a3c1)" d="M6.675 14.135c-0.8 0-1.45 0.65-1.45 1.45s0.65 1.45 1.45 1.45c0.8 0 1.45-0.65 1.45-1.45s-0.65-1.45-1.45-1.45z"></path>
<path fill="#f5e680" style="fill: var(--color5, #f5e680)" d="M10.535 10.425c-0.8 0-1.45 0.65-1.45 1.45s0.615 1.42 1.395 1.45l0.995-2.55c-0.265-0.225-0.595-0.345-0.94-0.345z"></path>
<path fill="#b8f5d2" style="fill: var(--color6, #b8f5d2)" d="M15.955 8.525c-0.76 0-1.39 0.585-1.445 1.34l2.070 1.415c0.505-0.24 0.825-0.75 0.825-1.31 0-0.8-0.65-1.45-1.45-1.45z"></path>
<path fill="#e8a3c1" style="fill: var(--color3, #e8a3c1)" d="M9.94 6.22c-0.8 0-1.45 0.65-1.45 1.45s0.65 1.45 1.45 1.45c0.8 0 1.45-0.65 1.45-1.45s-0.65-1.45-1.45-1.45z"></path>
<path fill="#e38fb6" style="fill: var(--color7, #e38fb6)" d="M17.25 18.59c-0.14 0-0.275 0.020-0.405 0.060 0.6 0.18 1.035 0.73 1.035 1.39 0 0.42-0.18 0.805-0.48 1.075l0.21 0.33c0.64-0.165 1.085-0.745 1.085-1.405 0-0.8-0.65-1.45-1.45-1.45z"></path>
<path fill="#75cdf8" style="fill: var(--color8, #75cdf8)" d="M10.545 17.050c-0.145 0-0.28 0.020-0.41 0.060 0.095 0.030 0.19 0.065 0.28 0.11l-0.635 2.505c0.195 0.12 0.42 0.2 0.665 0.215l0.785-1.12v-1.6c-0.21-0.115-0.445-0.175-0.685-0.175z"></path>
<path fill="#75cdf8" style="fill: var(--color8, #75cdf8)" d="M20.445 15.215c-0.135 0-0.27 0.025-0.4 0.065 0.61 0.185 1.030 0.75 1.030 1.385 0 0.64-0.425 1.2-1.040 1.385 0.135 0.040 0.27 0.065 0.41 0.065 0.8 0 1.45-0.65 1.45-1.45s-0.65-1.45-1.45-1.45z"></path>
<path fill="#e38fb6" style="fill: var(--color7, #e38fb6)" d="M6.675 14.135c-0.14 0-0.28 0.025-0.41 0.065 0.615 0.18 1.040 0.745 1.040 1.385s-0.42 1.205-1.035 1.385c0.13 0.040 0.265 0.060 0.405 0.065 0.8 0 1.45-0.65 1.45-1.45s-0.65-1.45-1.45-1.45z"></path>
<path fill="#f2d865" style="fill: var(--color9, #f2d865)" d="M10.535 10.425c-0.145 0-0.295 0.025-0.435 0.070 0.205 0.050 0.395 0.145 0.555 0.275l-0.9 2.31c0.215 0.145 0.465 0.225 0.725 0.24l0.995-2.55c-0.265-0.225-0.595-0.345-0.94-0.345z"></path>
<path fill="#a1f3c0" style="fill: var(--color10, #a1f3c0)" d="M15.955 8.525c-0.14 0-0.28 0.020-0.415 0.065 0.62 0.18 1.045 0.74 1.050 1.385 0 0.385-0.15 0.75-0.425 1.025l0.415 0.285c0.505-0.24 0.825-0.75 0.825-1.31 0-0.8-0.65-1.45-1.45-1.45z"></path>
<path fill="#e38fb6" style="fill: var(--color7, #e38fb6)" d="M9.94 6.22c-0.135 0-0.27 0.025-0.4 0.065 0.61 0.185 1.030 0.745 1.030 1.385s-0.425 1.2-1.040 1.385c0.135 0.040 0.27 0.065 0.41 0.065 0.8 0 1.45-0.65 1.45-1.45s-0.65-1.45-1.45-1.45z"></path>
<path fill="#f5e680" style="fill: var(--color5, #f5e680)" d="M19.11 26.615l-3.15-10.905-1.84-0.765-2.45 0.76-3.15 10.91 6.29 1.045 4.3-1.045z"></path>
<path fill="#f2d865" style="fill: var(--color9, #f2d865)" d="M14.12 14.945l-2.45 0.76-0.555 1.92c0.77 0.625 1.735 0.965 2.725 0.97 0.975-0.005 1.92-0.33 2.685-0.935l-0.56-1.95-1.84-0.765z"></path>
<path fill="#ebb680" style="fill: var(--color11, #ebb680)" d="M13.815 20.86c-0.9 0-1.54 0.73-1.625 1.625l-0.4 4.135 1.945 0.915 2.095-0.915-0.395-4.135c-0.085-0.895-0.725-1.625-1.625-1.625z"></path>
<path fill="#7a8594" style="fill: var(--color12, #7a8594)" d="M17 14.18c-0.45 1.375-1.735 2.305-3.185 2.305-1.85 0-3.35-1.5-3.35-3.35s1.5-3.35 3.35-3.35c1.45 0 2.735 0.93 3.185 2.305v2.085z"></path>
<path fill="#8fd7f8" style="fill: var(--color4, #8fd7f8)" d="M20.39 7.91c-0.47 0-0.885 0.315-1.005 0.77l-0.915 3.415h-4.65c-0.575 0-1.045 0.465-1.045 1.040s0.465 1.045 1.045 1.045h5.45c0.47 0 0.885-0.315 1.010-0.775l0.915-3.415h2.9v-2.085h-3.705z"></path>
<path fill="#75cdf8" style="fill: var(--color8, #75cdf8)" d="M21.835 7.91c-0.14 0.33-0.21 0.685-0.21 1.045s0.075 0.71 0.21 1.040h2.255v-2.085h-2.255z"></path>
<path fill="#d9f0f3" style="fill: var(--color13, #d9f0f3)" d="M28.825 8.955c0 1.505-1.22 2.72-2.72 2.72s-2.72-1.22-2.72-2.72 1.22-2.72 2.72-2.72 2.72 1.22 2.72 2.72z"></path>
<path fill="#b8e3ee" style="fill: var(--color14, #b8e3ee)" d="M26.105 6.23c-0.23 0-0.455 0.030-0.675 0.090 1.195 0.315 2.030 1.395 2.030 2.63 0 1.24-0.84 2.32-2.040 2.63 0.225 0.060 0.455 0.090 0.685 0.090 1.505 0 2.72-1.22 2.72-2.72 0-1.505-1.22-2.72-2.72-2.72z"></path>
<path fill="#f2d865" style="fill: var(--color9, #f2d865)" d="M8.93 25.19l-0.41 1.425 6.29 1.045 4.3-1.045-0.41-1.425h-9.77z"></path>
<path fill="#e6a361" style="fill: var(--color15, #e6a361)" d="M11.93 25.19l-0.135 1.425 1.945 0.915 2.095-0.915-0.135-1.425h-3.77z"></path>
<path fill="#f0f3f5" style="fill: var(--color1, #f0f3f5)" d="M7.45 26.615h12.73c0.8 0 1.44 0.645 1.44 1.44s-0.645 1.44-1.44 1.44h-12.73c-0.8 0-1.44-0.645-1.44-1.44s0.645-1.44 1.44-1.44z"></path>
<path fill="#e4ecf0" style="fill: var(--color2, #e4ecf0)" d="M18.345 26.615c0.8 0 1.445 0.645 1.445 1.44s-0.645 1.44-1.445 1.44h1.835c0.8 0 1.44-0.645 1.44-1.44s-0.645-1.44-1.44-1.44h-1.835z"></path>
<path fill="#000" style="fill: var(--color16, #000)" d="M26.1 5.73c-1.195 0-2.23 0.66-2.785 1.63-2.015-3.31-5.615-5.36-9.505-5.36-6.135 0-11.135 4.995-11.135 11.14 0 4.295 2.475 8.165 6.32 10.020l-0.855 2.96h-0.695c-1.070 0-1.94 0.87-1.94 1.94s0.87 1.94 1.94 1.94h12.73c1.070 0 1.94-0.87 1.94-1.94s-0.87-1.94-1.94-1.94h-0.695l-0.855-2.96c3.845-1.85 6.325-5.72 6.325-10.015 0-0.4-0.025-0.805-0.065-1.205 0.375 0.155 0.785 0.24 1.215 0.24 1.775 0 3.22-1.445 3.22-3.22s-1.445-3.22-3.22-3.22zM17.92 20.695l-0.45-1.56c0.41 0.105 0.73 0.465 0.73 0.905 0 0.255-0.11 0.485-0.28 0.655zM13.815 15.99c-1.57 0-2.85-1.28-2.85-2.85s1.285-2.85 2.85-2.85c0.91 0 1.795 0.415 2.37 1.31h-2.37c-0.85 0-1.54 0.69-1.54 1.54s0.69 1.54 1.54 1.54h2.37c-0.515 0.795-1.39 1.31-2.37 1.31zM10.1 19.33c-0.3-0.16-0.505-0.47-0.505-0.83 0-0.525 0.425-0.95 0.95-0.95 0.020 0 0.040 0.015 0.065 0.015l-0.51 1.765zM9.585 11.87c0-0.515 0.435-0.95 0.95-0.95 0.040 0 0.080 0.015 0.12 0.020-0.345 0.495-0.56 1.075-0.645 1.695-0.25-0.175-0.425-0.45-0.425-0.77zM16.64 10.58c-0.42-0.465-0.93-0.835-1.52-1.050 0.16-0.3 0.475-0.51 0.835-0.51 0.525 0 0.95 0.425 0.95 0.95 0 0.235-0.115 0.44-0.265 0.61zM13.815 13.68c-0.3 0-0.54-0.245-0.54-0.54s0.245-0.54 0.54-0.54h4.65c0.225 0 0.425-0.15 0.485-0.37l0.915-3.415c0.065-0.235 0.28-0.4 0.525-0.4h2.545c-0.030 0.175-0.055 0.355-0.055 0.54s0.025 0.365 0.055 0.54h-1.745c-0.225 0-0.425 0.15-0.485 0.37l-0.915 3.415c-0.065 0.235-0.28 0.4-0.525 0.4h-5.455zM3.675 13.14c0-5.59 4.55-10.14 10.14-10.14 3.35 0 6.46 1.68 8.34 4.41h-1.765c-0.695 0-1.31 0.47-1.49 1.145l-0.815 3.040h-0.785c-0.025-0.050-0.050-0.1-0.075-0.15 0.425-0.365 0.685-0.9 0.685-1.475 0-1.075-0.875-1.95-1.95-1.95-0.84 0-1.545 0.555-1.81 1.32-0.11-0.010-0.215-0.050-0.33-0.050-0.915 0-1.745 0.335-2.405 0.87-0.27-0.14-0.56-0.235-0.87-0.235-1.075 0-1.95 0.875-1.95 1.95 0 0.88 0.62 1.61 1.435 1.84 0.125 0.835 0.505 1.585 1.080 2.155l-0.21 0.725c-0.115-0.020-0.23-0.045-0.345-0.045-1.075 0-1.95 0.875-1.95 1.95 0 0.81 0.51 1.495 1.23 1.79l-0.545 1.89c-3.415-1.715-5.605-5.185-5.605-9.040zM21.12 28.060c0 0.52-0.42 0.94-0.94 0.94h-12.73c-0.52 0-0.94-0.425-0.94-0.94s0.425-0.94 0.94-0.94h12.73c0.52 0 0.94 0.425 0.94 0.94zM12.34 26.12l0.345-3.585c0.055-0.565 0.43-1.17 1.125-1.17s1.075 0.605 1.125 1.17l0.345 3.585h-2.945zM16.285 26.12l-0.355-3.68c-0.115-1.205-1.010-2.075-2.125-2.075s-2.005 0.875-2.12 2.075l-0.355 3.68h-2.155l2.78-9.62c0.55 0.305 1.18 0.495 1.855 0.495s1.29-0.21 1.845-0.52l2.785 9.645h-2.155zM18.345 22.185l-0.135-0.465c0.595-0.34 0.985-0.965 0.985-1.675 0-1.075-0.875-1.95-1.95-1.95-0.025 0-0.050 0.010-0.080 0.010l-0.66-2.28c0.325-0.325 0.59-0.705 0.78-1.14h1.97c0.695 0 1.31-0.47 1.49-1.145l0.815-3.040h1.72c0.13 0.235 0.28 0.45 0.46 0.645 0.13 0.655 0.205 1.33 0.205 2 0 3.855-2.19 7.33-5.605 9.040zM26.095 11.18c-1.225 0-2.22-0.995-2.22-2.22s0.995-2.22 2.22-2.22 2.22 0.995 2.22 2.22-0.995 2.22-2.22 2.22z"></path>
<path fill="#000" style="fill: var(--color16, #000)" d="M13.815 17.725c-0.275 0-0.5 0.225-0.5 0.5v0.775c0 0.275 0.225 0.5 0.5 0.5s0.5-0.225 0.5-0.5v-0.775c0-0.275-0.225-0.5-0.5-0.5z"></path>
<path fill="#000" style="fill: var(--color16, #000)" d="M20.445 14.715v0c-1.075 0-1.95 0.875-1.95 1.95s0.875 1.95 1.95 1.95 1.95-0.875 1.95-1.95-0.875-1.95-1.95-1.95zM20.445 17.615c-0.525 0-0.95-0.425-0.95-0.95s0.425-0.95 0.95-0.95c0.525 0 0.95 0.425 0.95 0.95s-0.435 0.95-0.95 0.95z"></path>
<path fill="#000" style="fill: var(--color16, #000)" d="M6.675 13.635c-1.075 0-1.95 0.875-1.95 1.95s0.875 1.95 1.95 1.95 1.95-0.875 1.95-1.95-0.875-1.95-1.95-1.95zM6.675 16.535c-0.525 0-0.95-0.425-0.95-0.95s0.425-0.95 0.95-0.95 0.95 0.425 0.95 0.95-0.425 0.95-0.95 0.95z"></path>
<path fill="#000" style="fill: var(--color16, #000)" d="M9.94 9.62c1.075 0 1.95-0.875 1.95-1.95s-0.875-1.95-1.95-1.95-1.95 0.875-1.95 1.95 0.875 1.95 1.95 1.95zM9.94 6.725v0c0.515 0 0.95 0.435 0.95 0.95 0 0.525-0.425 0.95-0.95 0.95s-0.95-0.435-0.95-0.95 0.435-0.95 0.95-0.95z"></path>
</symbol>
<symbol id="icon-target" viewBox="0 0 32 32">
<path fill="#f76d57" style="fill: var(--color1, #f76d57)" d="M19 16c0 1.657-1.343 3-3 3s-3-1.343-3-3c0-1.657 1.343-3 3-3s3 1.343 3 3z"></path>
<path fill="#f9ebb2" style="fill: var(--color2, #f9ebb2)" d="M16 10c-3.313 0-6 2.687-6 6s2.687 6 6 6 6-2.686 6-6-2.686-6-6-6zM16 20c-2.209 0-4-1.791-4-4s1.791-4 4-4 4 1.791 4 4-1.791 4-4 4z"></path>
<path fill="#45aab8" style="fill: var(--color3, #45aab8)" d="M16 7c-4.971 0-9 4.029-9 9s4.029 9 9 9 9-4.029 9-9-4.029-9-9-9zM16 23c-3.866 0-7-3.134-7-7s3.134-7 7-7 7 3.134 7 7-3.134 7-7 7z"></path>
<path fill="#f9ebb2" style="fill: var(--color2, #f9ebb2)" d="M16 4c-6.628 0-12 5.372-12 12s5.372 12 12 12 12-5.372 12-12-5.372-12-12-12zM16 26c-5.523 0-10-4.477-10-10s4.477-10 10-10 10 4.477 10 10-4.477 10-10 10z"></path>
<path fill="#45aab8" style="fill: var(--color3, #45aab8)" d="M16 1c-8.284 0-15 6.716-15 15s6.716 15 15 15 15-6.716 15-15-6.716-15-15-15zM16 29c-7.18 0-13-5.82-13-13s5.82-13 13-13 13 5.82 13 13-5.82 13-13 13z"></path>
<path fill="#394240" style="fill: var(--color4, #394240)" d="M16 0c-4.239 0-8.089 1.651-10.951 4.341l-0.548-0.548v-1.293c0-0.084-0.026-0.159-0.062-0.228-0.007-0.031-0.024-0.066-0.064-0.106l-2.020-2.019c-0.091-0.091-0.216-0.146-0.353-0.146-0.276 0-0.5 0.224-0.5 0.5v1h-1c-0.277 0-0.5 0.224-0.5 0.5 0 0.138 0.056 0.263 0.146 0.353v0.001l1.999 1.999c0.001 0 0.001 0 0.001 0l0.021 0.021c0.040 0.040 0.074 0.058 0.105 0.064 0.069 0.036 0.144 0.061 0.228 0.061h1.293l0.548 0.548c-2.691 2.862-4.341 6.713-4.341 10.951 0 8.836 7.163 16 16 16s16-7.163 16-16-7.163-16-16-16zM3.5 3.5h-0.792l-0.998-0.998 0.791-0.002 0.006-0.787 0.994 0.994v0.793zM16 31c-8.284 0-15-6.716-15-15 0-3.962 1.539-7.564 4.048-10.245l1.414 1.414c-2.148 2.319-3.462 5.421-3.462 8.831 0 7.18 5.82 13 13 13s13-5.82 13-13-5.82-13-13-13c-3.41 0-6.511 1.314-8.831 3.463l-1.414-1.414c2.681-2.51 6.282-4.048 10.245-4.048 8.284 0 15 6.716 15 15s-6.716 15-15 15zM8.592 9.3c-1.606 1.774-2.592 4.119-2.592 6.7 0 5.523 4.477 10 10 10s10-4.477 10-10-4.477-10-10-10c-2.582 0-4.927 0.987-6.7 2.592l-1.423-1.423c2.137-1.968 4.989-3.17 8.123-3.17 6.628 0 12 5.372 12 12s-5.372 12-12 12-12-5.372-12-12c0-3.134 1.202-5.986 3.17-8.123l1.423 1.422zM10.713 11.421c-1.065 1.228-1.713 2.826-1.713 4.579 0 3.866 3.134 7 7 7s7-3.134 7-7-3.134-7-7-7c-1.753 0-3.351 0.649-4.579 1.713l-1.414-1.414c1.592-1.425 3.688-2.3 5.993-2.3 4.971 0 9 4.029 9 9s-4.029 9-9 9-9-4.029-9-9c0-2.305 0.874-4.402 2.3-5.994l1.414 1.414zM12.843 13.55c-0.527 0.678-0.843 1.526-0.843 2.45 0 2.209 1.791 4 4 4s4-1.791 4-4-1.791-4-4-4c-0.925 0-1.773 0.316-2.45 0.843l-1.422-1.422c1.046-0.885 2.396-1.421 3.872-1.421 3.314 0 6 2.687 6 6s-2.686 6-6 6-6-2.686-6-6c0-1.476 0.536-2.826 1.421-3.872l1.422 1.422zM15.646 16.354c0.195 0.195 0.512 0.195 0.707 0s0.195-0.511 0-0.707l-2.090-2.090c0.491-0.349 1.088-0.556 1.736-0.556 1.657 0 3 1.344 3 3s-1.343 3-3 3-3-1.343-3-3c0-0.648 0.207-1.246 0.556-1.736l2.090 2.090z"></path>
<path fill="#b4ccb9" style="fill: var(--color5, #b4ccb9)" d="M3.5 3.5h-0.792l-0.998-0.998 0.791-0.002 0.006-0.787 0.994 0.994z"></path>
</symbol>
<symbol id="icon-star" viewBox="0 0 32 32">
<path d="M32 12.408l-11.056-1.607-4.944-10.018-4.944 10.018-11.056 1.607 8 7.798-1.889 11.011 9.889-5.199 9.889 5.199-1.889-11.011 8-7.798z"></path>
</symbol>
<symbol id="icon-question" viewBox="0 0 32 32">
<path fill="#ff5a79" style="fill: var(--color1, #ff5a79)" d="M15.1 1.050c-5.8 0.35-8.85 3.65-9.1 9.6h5.85c0.050-2.050 1.25-3.6 3.35-3.85 2.1-0.2 4.1 0.3 4.7 1.7 0.65 1.55-0.8 3.35-1.5 4.1-1.3 1.4-3.4 2.45-4.5 3.95-1.050 1.5-1.25 3.45-1.35 5.85h5.15c0.050-1.55 0.15-3 0.85-3.95 1.15-1.55 2.85-2.25 4.25-3.5 1.35-1.15 2.8-2.55 3-4.75 0.85-6.45-4.45-9.55-10.7-9.15z"></path>
<path fill="#ff5a79" style="fill: var(--color1, #ff5a79)" d="M18.5 27.8c0 1.767-1.455 3.2-3.25 3.2s-3.25-1.433-3.25-3.2c0-1.767 1.455-3.2 3.25-3.2s3.25 1.433 3.25 3.2z"></path>
</symbol>
</defs>
</svg>